<?xml version="1.0" encoding="UTF-8"?><svg id="Calque_2" xmlns="http://www.w3.org/2000/svg" viewBox="0 0 88.05 37.27"><defs><style>.cls-1,.cls-2{fill:#f5f2d9;}.cls-2{stroke:#f5f2d9;stroke-miterlimit:1;stroke-width:.75px;}</style></defs><g id="White_Print"><path class="cls-2" d="M2.35,12.39c.21-.19.28-.47.26-.74-.02-.24-.15-.45-.29-.64-.25-.34-.6-.7-1.06-.63-.47.08-.79.36-.87.8-.04.19.11.52.22.69.06.08.1.17.17.25.07.09.17.17.27.24.38.25.95.36,1.31.03Z"/><path class="cls-2" d="M1.95,9.18c.16.24.34.45.59.59.51.28,1.24.19,1.54-.35.3-.55-.02-1.2-.33-1.68-.32-.5-.82-1.05-1.47-.94-.7.11-.97.92-.76,1.52.1.31.25.59.43.86Z"/><path class="cls-2" d="M6.61,7.29c.47-.58.18-1.46-.05-2.07-.24-.61-.7-1.4-1.45-1.4-.81,0-1.37.85-1.2,1.62.13.69.3,1.46.86,1.94.53.45,1.38.48,1.84-.09Z"/><path class="cls-2" d="M7.99,5.57c.49.57,1.39.76,2.02.29.64-.48.54-1.42.4-2.11-.14-.7-.46-1.6-1.22-1.85-.89-.28-1.79.49-1.8,1.39-.02.41.03.83.12,1.23.08.38.22.74.48,1.04Z"/><path class="cls-2" d="M13.86,5.82c.92-.2,1.17-1.15,1.27-1.96.11-.85.05-1.93-.7-2.48-.37-.28-.9-.35-1.34-.22-.45.13-.79.43-1.01.82-.03.03-.05.07-.07.11,0,.01-.01.02-.02.04-.01.03-.02.05-.02.08-.12.36-.19.74-.24,1.11-.05.43-.06.86.09,1.28.28.82,1.16,1.42,2.04,1.23Z"/><path class="cls-2" d="M30.01,25.19c-.21-.95-.42-2.04-.64-3.25-.22-1.22-.46-2.53-.71-3.95-.25-1.41-.51-2.82-.79-4.23-.03-.17-.13-.29-.29-.37-.16-.07-.35-.12-.58-.15-.22-.03-.47-.02-.73.01-.26.04-.51.1-.76.18-.33.11-.6.24-.8.41-.21.17-.3.36-.27.58l.44,2c-.63-.54-1.31-.96-2.03-1.25-.73-.29-1.48-.33-2.25-.12-1.21.32-2.1.93-2.68,1.83-.58.9-.9,1.9-.96,3.01-.06,1.11.11,2.23.52,3.36.41,1.13,1.01,2.12,1.79,2.95s1.72,1.43,2.81,1.77c1.1.35,2.3.29,3.62-.19.53-.19.96-.46,1.31-.79.34-.34.6-.73.78-1.17.16.42.3.81.43,1.17.13.36.24.66.35.92.11.28.31.44.58.49.28.05.56.02.84-.07.25-.08.44-.21.59-.38.15-.17.15-.37.01-.6-.19-.51-.38-1.23-.59-2.19ZM26.55,22.93c.11.77.07,1.46-.13,2.08-.2.62-.62,1.04-1.27,1.28-.59.21-1.15.14-1.68-.22-.53-.36-1.02-.88-1.45-1.55-.43-.67-.8-1.44-1.1-2.29-.3-.85-.5-1.68-.61-2.47-.11-.79-.11-1.48,0-2.07.1-.59.35-.94.74-1.07.58-.16,1.18-.07,1.79.27.61.35,1.17.84,1.68,1.48.51.64.95,1.37,1.32,2.19.37.82.61,1.62.72,2.38Z"/><path class="cls-2" d="M49.1,11.53c-.55-.66-1.21-1.17-1.97-1.51-.76-.35-1.59-.44-2.51-.29-1.33.26-2.35.84-3.05,1.74-.7.9-1.15,1.95-1.35,3.15-.2,1.2-.16,2.46.12,3.78.27,1.32.73,2.51,1.36,3.57.63,1.06,1.42,1.91,2.37,2.56.95.64,1.98.89,3.12.73.88-.12,1.61-.45,2.2-.98.59-.53,1.05-1.19,1.38-1.99.33-.8.53-1.68.61-2.65.08-.97.04-1.94-.1-2.92-.14-.98-.4-1.92-.77-2.83-.37-.9-.83-1.69-1.39-2.35ZM49.74,19.49c-.11.95-.39,1.81-.84,2.58-.45.77-1.08,1.29-1.9,1.58-.37.14-.73-.07-1.09-.61-.36-.55-.68-1.27-.96-2.17-.28-.9-.52-1.9-.71-2.99-.19-1.09-.3-2.11-.34-3.06-.04-.95.02-1.75.18-2.42.16-.67.44-1.03.84-1.08.81-.13,1.53.05,2.18.54.64.49,1.18,1.14,1.61,1.94.43.81.74,1.72.92,2.73.18,1.02.22,2,.11,2.96Z"/><path class="cls-2" d="M62.61,8.25c-.34-.1-.71-.13-1.12-.08-.41.05-.78.15-1.1.33-.33.17-.5.39-.51.66,0,.11-.03.45-.08,1.02-.05.57-.13,1.25-.22,2.05-.09.8-.2,1.65-.35,2.57-.14.92-.3,1.77-.48,2.57-.17.8-.37,1.49-.58,2.05-.21.57-.45.91-.71,1.02-.24.11-.47-.03-.67-.43-.21-.4-.4-.94-.56-1.64-.17-.69-.32-1.48-.45-2.36-.14-.88-.25-1.76-.34-2.62-.09-.86-.16-1.65-.23-2.37-.06-.72-.11-1.27-.13-1.64,0-.26-.2-.43-.59-.5-.39-.07-.8-.07-1.23,0-.44.07-.83.21-1.19.41s-.53.43-.52.69c.05.58.1,1.31.17,2.17.07.86.17,1.77.31,2.7.14.94.34,1.87.6,2.8.27.93.62,1.73,1.06,2.43.44.69.99,1.23,1.64,1.61.65.38,1.45.49,2.38.33.55-.11,1.01-.44,1.39-1.01.37-.57.68-1.2.91-1.92.24-.71.42-1.44.55-2.18.13-.74.23-1.32.3-1.75l1.03,6.2c.05.25.24.42.59.5.34.08.71.08,1.11.02.39-.06.75-.19,1.06-.38.31-.19.44-.43.39-.7l-1.85-12.03c-.05-.25-.24-.43-.58-.53Z"/><path class="cls-2" d="M74.82,11.14c-.5-.39-1.1-.52-1.81-.38-.48.09-.86.21-1.16.36-.29.15-.55.3-.78.45-.23.15-.47.3-.72.43-.25.13-.57.23-.96.31s-.74-.02-.99-.29c-.25-.27-.43-.64-.53-1.1-.1-.46-.12-.96-.06-1.52.06-.55.19-1.07.39-1.55.2-.48.48-.88.83-1.21.35-.32.77-.49,1.27-.49.22,0,.44.05.65.16.21.11.4.24.57.37.16.13.3.26.4.38.11.12.17.19.19.22.13.18.28.28.46.3.18.02.34-.02.47-.12.14-.1.23-.23.29-.4.06-.17.02-.35-.1-.54-.02-.03-.04-.06-.04-.07-.03-.05-.09-.12-.18-.21-.34-.43-.76-.78-1.28-1.05-.51-.27-1.06-.39-1.64-.37-1.22.03-2.23.3-3.01.81-.78.51-1.36,1.12-1.74,1.85-.37.72-.55,1.49-.54,2.29.02.8.21,1.53.58,2.17.37.64.92,1.14,1.63,1.48.72.34,1.59.41,2.61.21.57-.11,1.02-.25,1.35-.41.34-.17.62-.33.86-.48.24-.16.46-.29.66-.42.21-.12.45-.2.74-.24.14-.03.25.13.34.47.08.34.13.77.13,1.3,0,.52-.05,1.1-.14,1.72-.09.62-.23,1.21-.43,1.78-.2.56-.44,1.04-.74,1.44-.3.4-.66.64-1.09.72-.46.09-.9.1-1.32.03-.42-.07-.79-.22-1.12-.46-.33-.24-.6-.57-.81-1-.21-.43-.35-.96-.42-1.61-.02-.22-.11-.37-.27-.46-.15-.09-.32-.12-.5-.08s-.33.12-.44.26c-.12.14-.16.32-.12.53.01.07.03.19.06.36.02.17.07.38.13.62.15.61.41,1.14.77,1.59.36.44.77.8,1.24,1.06.46.26.95.43,1.48.51.52.08,1.03.08,1.52-.02,1.04-.2,1.91-.61,2.59-1.23.68-.62,1.2-1.32,1.55-2.11.35-.79.54-1.61.57-2.46.03-.85-.08-1.61-.32-2.29-.24-.68-.61-1.21-1.11-1.6Z"/><path class="cls-2" d="M86.8,10.08c-.27-1.07-.63-2.02-1.08-2.86-.45-.83-1.01-1.48-1.69-1.93-.67-.45-1.47-.59-2.41-.41-.6.11-1.1.4-1.52.85-.41.45-.74,1.02-.97,1.71-.12-.98-.23-2.01-.33-3.08-.11-1.07-.2-2.21-.28-3.39,0-.24-.21-.4-.61-.48-.4-.09-.83-.11-1.29-.08-.46.03-.88.12-1.25.27-.37.14-.56.33-.55.54.13,2.13.37,4.09.72,5.88s.74,3.4,1.17,4.82c.44,1.42.87,2.65,1.31,3.69.44,1.04.81,1.87,1.11,2.48.2.4.48.62.81.68.34.05.66.01.96-.12.3-.13.54-.32.71-.56.17-.24.19-.46.07-.66l-.12-.2v-.03s-.04-.02-.04-.02v-.03c-.71-1.4-1.17-2.74-1.38-4.03-.21-1.29-.26-2.44-.16-3.45.11-1.01.34-1.83.7-2.46.36-.63.76-.98,1.19-1.02.18-.03.36.12.54.46.18.34.36.79.54,1.36.17.57.34,1.22.51,1.95.17.73.33,1.49.48,2.26.34,1.8.68,3.85.99,6.16-.01.22.12.38.41.47.28.09.59.12.92.1.33-.03.65-.11.94-.24.29-.13.45-.3.46-.53.02-.46.02-1.13,0-2.02-.02-.89-.11-1.86-.24-2.91-.14-1.05-.34-2.11-.61-3.18Z"/><path class="cls-2" d="M12.72,7.55h0s0,0,0,0c-.01,0-1.25-.3-2.83,0-.22.04-.45.1-.67.16-3.2.93-4.85,3.73-5.67,5.92-1.21,3.23-1.03,6.94.52,10.74,1.26,3.09,3.05,5.32,3.63,5.92h0s0,.01,0,.01c.02.02,1.76,2,3.83,2.38.43.08.87.08,1.27,0,.42-.08.79-.25,1.08-.48.46-.37.71-.93.72-1.6h0s0-.02,0-.02c.01-.1.22-2.59-3.13-6.05-.45-.35-.52-.72-.5-.97.09-1.01,1.75-1.88,1.93-1.97l1.71-.87c.61-.33.84-.63.95-1.22.05-.27.02-.57-.09-.81-.13-.29-.35-.46-.66-.53-.26-.06-.56-.05-.87,0-1.08.21-2.05,1.03-2.09,1.06h0c-.6.49-1.24.83-1.72.92-.17.03-.32.03-.43,0-.33-.09-.65-.38-.88-.83-.2-.37-.32-.8-.31-1.13,0-.33.07-.63.19-.83.14-.25.49-.59.74-.73.11-.06.28-.15.49-.26h0c1.2-.62,4.39-2.27,4.99-3.37l.03-.06c.23-.42.47-.85.56-1.34.35-1.89-.91-3.71-2.79-4.06Z"/><path class="cls-2" d="M34.91,11.19c-.79.48-1.26,1.24-1.56,2.1-.07-.27-.14-.55-.22-.83-.06-.21-.36-.73-.62-.78-.26-.05-.56-.05-.9.01-.25.05-.5.11-.75.2-.25.09-.46.2-.65.33-.18.13-.33.27-.44.41-.11.14-.13.29-.08.46.42,1.37.85,2.74,1.29,4.1.44,1.36.85,2.64,1.23,3.82.38,1.18.7,2.24.96,3.17.27.94.44,1.67.51,2.21-.02.27.08.44.29.52.21.08.44.1.7.05.3-.05.56-.17.78-.34.22-.17.32-.41.28-.71-.03-.28-.07-.61-.13-.98-.36-2.31-.67-4.28-1.29-7.47-.12-.63-.28-1.46-.2-2.1s.15-1.09.59-1.66c.17-.22.51-.4.79-.38.19.01.37.15.6.4.41.44.83.96,1.57,1.05.55.07,1.16-.23,1.44-.74.41-.76.08-1.58-.42-2.22-.91-1.17-2.57-1.37-3.8-.62Z"/><path class="cls-1" d="M44.49,31.2c-.12.57-.17.86-.29,1.44-.26-.05-.39-.08-.65-.14.36-1.6.54-2.4.9-4,.65.14.97.21,1.62.31.82.13,1.3.7,1.21,1.49-.08.76-.73,1.26-1.63,1.12-.47-.07-.7-.12-1.16-.21ZM44.91,29.11c-.13.64-.19.97-.32,1.61.4.08.61.12,1.01.18.61.1.99-.18,1.05-.68.07-.51-.22-.84-.76-.93-.39-.06-.59-.1-.98-.18Z"/><path class="cls-1" d="M48.36,33.18c.81-1.59,1.17-2.41,1.79-4.05.25,0,.38,0,.63,0,.65,1.63,1.02,2.43,1.86,4.01-.27.02-.41.03-.69.05-.2-.4-.29-.6-.48-1-.79.03-1.18.04-1.97.02-.18.4-.27.61-.46,1.01-.27-.01-.41-.02-.69-.03ZM49.7,31.73c.63.01.94,0,1.56-.01-.31-.67-.45-1.01-.73-1.7-.03-.08-.06-.18-.07-.24-.01.06-.04.15-.07.24-.26.69-.4,1.03-.69,1.71Z"/><path class="cls-1" d="M54.6,32.92c-.23-1.62-.35-2.44-.59-4.06.63-.09.94-.15,1.56-.27.88-.18,1.51.12,1.71.86.14.55-.05,1.03-.57,1.32.52.59.79.88,1.35,1.45-.28.07-.42.11-.71.18-.5-.55-.75-.83-1.21-1.39-.46.1-.69.14-1.15.22.11.64.16.96.27,1.6-.26.04-.39.06-.65.1ZM54.9,30.73c.43-.07.65-.11,1.08-.2.56-.11.81-.46.7-.92-.11-.46-.48-.64-1-.53-.4.08-.61.12-1.02.19.1.59.15.88.24,1.47Z"/><path class="cls-1" d="M60.77,31.36c-.25.09-.37.14-.62.22-.53-1.55-.8-2.33-1.33-3.88.22-.07.32-.11.54-.19.57,1.54.85,2.31,1.42,3.85Z"/><path class="cls-1" d="M62.39,26.09c.72-.37,1.39-.27,1.79.32-.21.12-.32.18-.53.3-.23-.34-.61-.4-1.04-.18-.48.25-.69.63-.51,1,.14.3.41.39.83.28.29-.08.44-.12.74-.2.73-.22,1.24-.11,1.53.39.38.64.03,1.4-.9,1.88-.89.46-1.68.33-2-.3.24-.11.36-.16.59-.27.18.35.64.41,1.18.13.57-.29.8-.72.6-1.08-.16-.28-.43-.36-.87-.23-.3.09-.45.13-.74.21-.74.2-1.25,0-1.49-.54-.29-.64.05-1.31.82-1.71Z"/></g></svg>